HIERARCHY
ROOT Hips
{
	OFFSET -0.087744 88.518600 4.106688
	CHANNELS 6 Xposition Yposition Zposition Zrotation Yrotation Xrotation 
	JOINT Spine
	{
		OFFSET 0.000000 8.814246 -2.080107
		CHANNELS 3 Zrotation Yrotation Xrotation
		JOINT Spine1
		{
			OFFSET -0.000000 8.844141 -0.000000
			CHANNELS 3 Zrotation Yrotation Xrotation
			JOINT Spine2
			{
				OFFSET 0.000000 11.682268 0.000000
				CHANNELS 3 Zrotation Yrotation Xrotation
				JOINT Spine3
				{
					OFFSET 0.000000 11.746700 0.000000
					CHANNELS 3 Zrotation Yrotation Xrotation
					JOINT Neck
					{
						OFFSET 0.000000 17.658264 -0.000000
						CHANNELS 3 Zrotation Yrotation Xrotation
						JOINT Neck1
						{
							OFFSET -0.000000 5.101515 -0.000000
							CHANNELS 3 Zrotation Yrotation Xrotation
							JOINT Head
							{
								OFFSET -0.000000 5.101515 -0.000000
								CHANNELS 3 Zrotation Yrotation Xrotation
								JOINT HeadEnd
								{
									OFFSET 0.000000 11.655085 0.000000
									CHANNELS 3 Zrotation Yrotation Xrotation
									End Site
									{
										OFFSET 0.000000 0.000000 0.000000
									}
								}
							}
						}
					}
					JOINT RightShoulder
					{
						OFFSET -2.625389 11.175210 0.000000
						CHANNELS 3 Zrotation Yrotation Xrotation
						JOINT RightArm
						{
							OFFSET 0.000000 10.434715 -0.000000
							CHANNELS 3 Zrotation Yrotation Xrotation
							JOINT RightForeArm
							{
								OFFSET -0.000000 29.628420 0.000000
								CHANNELS 3 Zrotation Yrotation Xrotation
								JOINT RightHand
								{
									OFFSET -0.000000 22.857611 0.000000
									CHANNELS 3 Zrotation Yrotation Xrotation
									JOINT RightHandThumb1
									{
										OFFSET -2.867323 3.959563 2.944291
										CHANNELS 3 Zrotation Yrotation Xrotation
										JOINT RightHandThumb2
										{
											OFFSET -0.000000 3.350399 0.000000
											CHANNELS 3 Zrotation Yrotation Xrotation
											JOINT RightHandThumb3
											{
												OFFSET 0.000000 3.756509 -0.000000
												CHANNELS 3 Zrotation Yrotation Xrotation
												JOINT RightHandThumb4
												{
													OFFSET -0.000000 3.147345 0.000000
													CHANNELS 3 Zrotation Yrotation Xrotation
													End Site
													{
														OFFSET 0.000000 0.000000 0.000000
													}
												}
											}
										}
									}
									JOINT RightHandIndex1
									{
										OFFSET -0.086752 10.030893 2.345280
										CHANNELS 3 Zrotation Yrotation Xrotation
										JOINT RightHandIndex2
										{
											OFFSET 0.000000 4.061090 -0.000000
											CHANNELS 3 Zrotation Yrotation Xrotation
											JOINT RightHandIndex3
											{
												OFFSET 0.000000 3.248873 -0.000000
												CHANNELS 3 Zrotation Yrotation Xrotation
												JOINT RightHandIndex4
												{
													OFFSET 0.000000 2.639709 -0.000000
													CHANNELS 3 Zrotation Yrotation Xrotation
													End Site
													{
														OFFSET 0.000000 0.000000 0.000000
													}
												}
											}
										}
									}
									JOINT RightHandMiddle1
									{
										OFFSET 0.104102 9.502952 0.006768
										CHANNELS 3 Zrotation Yrotation Xrotation
										JOINT RightHandMiddle2
										{
											OFFSET 0.000000 4.568727 -0.000000
											CHANNELS 3 Zrotation Yrotation Xrotation
											JOINT RightHandMiddle3
											{
												OFFSET -0.000000 3.654981 0.000000
												CHANNELS 3 Zrotation Yrotation Xrotation
												JOINT RightHandMiddle4
												{
													OFFSET 0.000000 2.741236 0.000000
													CHANNELS 3 Zrotation Yrotation Xrotation
													End Site
													{
														OFFSET 0.000000 0.000000 0.000000
													}
												}
											}
										}
									}
									JOINT RightHandRing1
									{
										OFFSET 0.086752 8.921708 -2.267442
										CHANNELS 3 Zrotation Yrotation Xrotation
										JOINT RightHandRing2
										{
											OFFSET 0.000000 4.061090 -0.000000
											CHANNELS 3 Zrotation Yrotation Xrotation
											JOINT RightHandRing3
											{
												OFFSET -0.000000 3.654981 0.000000
												CHANNELS 3 Zrotation Yrotation Xrotation
												JOINT RightHandRing4
												{
													OFFSET 0.000000 2.741236 -0.000000
													CHANNELS 3 Zrotation Yrotation Xrotation
													End Site
													{
														OFFSET 0.000000 0.000000 0.000000
													}
												}
											}
										}
									}
									JOINT RightHandPinky1
									{
										OFFSET -0.173504 7.976997 -4.467199
										CHANNELS 3 Zrotation Yrotation Xrotation
										JOINT RightHandPinky2
										{
											OFFSET 0.000000 3.350399 0.000000
											CHANNELS 3 Zrotation Yrotation Xrotation
											JOINT RightHandPinky3
											{
												OFFSET 0.000000 2.842763 -0.000000
												CHANNELS 3 Zrotation Yrotation Xrotation
												JOINT RightHandPinky4
												{
													OFFSET -0.000000 2.639709 -0.000000
													CHANNELS 3 Zrotation Yrotation Xrotation
													End Site
													{
														OFFSET 0.000000 0.000000 0.000000
													}
												}
											}
										}
									}
									JOINT RightForeArmEnd
									{
										OFFSET 0.000000 0.000000 0.000000
										CHANNELS 3 Zrotation Yrotation Xrotation
										End Site
										{
											OFFSET 0.000000 0.000000 0.000000
										}
									}
								}
								JOINT RightArmEnd
								{
									OFFSET 0.000000 0.000000 0.000000
									CHANNELS 3 Zrotation Yrotation Xrotation
									End Site
									{
										OFFSET 0.000000 0.000000 0.000000
									}
								}
							}
						}
					}
					JOINT LeftShoulder
					{
						OFFSET 2.625389 11.175210 -0.000000
						CHANNELS 3 Zrotation Yrotation Xrotation
						JOINT LeftArm
						{
							OFFSET -0.000000 10.813635 0.000000
							CHANNELS 3 Zrotation Yrotation Xrotation
							JOINT LeftForeArm
							{
								OFFSET -0.000000 28.724781 0.000000
								CHANNELS 3 Zrotation Yrotation Xrotation
								JOINT LeftHand
								{
									OFFSET 0.644384 25.716167 -0.328871
									CHANNELS 3 Zrotation Yrotation Xrotation
									JOINT LeftHandThumb1
									{
										OFFSET 2.867323 3.959563 2.944291
										CHANNELS 3 Zrotation Yrotation Xrotation
										JOINT LeftHandThumb2
										{
											OFFSET -0.000000 3.350399 0.000000
											CHANNELS 3 Zrotation Yrotation Xrotation
											JOINT LeftHandThumb3
											{
												OFFSET -0.000000 3.756509 -0.000000
												CHANNELS 3 Zrotation Yrotation Xrotation
												JOINT LeftHandThumb4
												{
													OFFSET 0.000000 3.100000 -0.000000
													CHANNELS 3 Zrotation Yrotation Xrotation
													End Site
													{
														OFFSET 0.000000 0.000000 0.000000
													}
												}
											}
										}
									}
									JOINT LeftHandIndex1
									{
										OFFSET 0.086752 10.030893 2.345280
										CHANNELS 3 Zrotation Yrotation Xrotation
										JOINT LeftHandIndex2
										{
											OFFSET -0.000000 4.061090 0.000000
											CHANNELS 3 Zrotation Yrotation Xrotation
											JOINT LeftHandIndex3
											{
												OFFSET 0.000000 3.248873 0.000000
												CHANNELS 3 Zrotation Yrotation Xrotation
												JOINT LeftHandIndex4
												{
													OFFSET 0.000000 2.639709 -0.000000
													CHANNELS 3 Zrotation Yrotation Xrotation
													End Site
													{
														OFFSET 0.000000 0.000000 0.000000
													}
												}
											}
										}
									}
									JOINT LeftHandMiddle1
									{
										OFFSET -0.104102 9.502952 0.006768
										CHANNELS 3 Zrotation Yrotation Xrotation
										JOINT LeftHandMiddle2
										{
											OFFSET 0.000000 4.568727 -0.000000
											CHANNELS 3 Zrotation Yrotation Xrotation
											JOINT LeftHandMiddle3
											{
												OFFSET 0.000000 3.654981 0.000000
												CHANNELS 3 Zrotation Yrotation Xrotation
												JOINT LeftHandMiddle4
												{
													OFFSET -0.000000 2.741236 -0.000000
													CHANNELS 3 Zrotation Yrotation Xrotation
													End Site
													{
														OFFSET 0.000000 0.000000 0.000000
													}
												}
											}
										}
									}
									JOINT LeftHandRing1
									{
										OFFSET -0.086752 8.921708 -2.267442
										CHANNELS 3 Zrotation Yrotation Xrotation
										JOINT LeftHandRing2
										{
											OFFSET -0.000000 4.061090 -0.000000
											CHANNELS 3 Zrotation Yrotation Xrotation
											JOINT LeftHandRing3
											{
												OFFSET 0.000000 3.654981 0.000000
												CHANNELS 3 Zrotation Yrotation Xrotation
												JOINT LeftHandRing4
												{
													OFFSET -0.000000 2.741236 -0.000000
													CHANNELS 3 Zrotation Yrotation Xrotation
													End Site
													{
														OFFSET 0.000000 0.000000 0.000000
													}
												}
											}
										}
									}
									JOINT LeftHandPinky1
									{
										OFFSET 0.173504 7.976997 -4.467199
										CHANNELS 3 Zrotation Yrotation Xrotation
										JOINT LeftHandPinky2
										{
											OFFSET 0.000000 3.350399 0.000000
											CHANNELS 3 Zrotation Yrotation Xrotation
											JOINT LeftHandPinky3
											{
												OFFSET -0.000000 2.842763 -0.000000
												CHANNELS 3 Zrotation Yrotation Xrotation
												JOINT LeftHandPinky4
												{
													OFFSET -0.000000 2.639709 -0.000000
													CHANNELS 3 Zrotation Yrotation Xrotation
													End Site
													{
														OFFSET 0.000000 0.000000 0.000000
													}
												}
											}
										}
									}
									JOINT LeftForeArmEnd
									{
										OFFSET 0.000000 0.000000 0.000000
										CHANNELS 3 Zrotation Yrotation Xrotation
										End Site
										{
											OFFSET 0.000000 0.000000 0.000000
										}
									}
								}
								JOINT LeftArmEnd
								{
									OFFSET 0.000000 0.000000 0.000000
									CHANNELS 3 Zrotation Yrotation Xrotation
									End Site
									{
										OFFSET 0.000000 0.000000 0.000000
									}
								}
							}
						}
					}
				}
			}
		}
	}
	JOINT RightUpLeg
	{
		OFFSET -11.289943 0.000000 0.000000
		CHANNELS 3 Zrotation Yrotation Xrotation
		JOINT RightLeg
		{
			OFFSET -0.000000 -38.200325 -0.000000
			CHANNELS 3 Zrotation Yrotation Xrotation
			JOINT RightFoot
			{
				OFFSET -0.000000 -39.900856 -0.000000
				CHANNELS 3 Zrotation Yrotation Xrotation
				JOINT RightToeBase
				{
					OFFSET 0.000000 0.000000 15.261641
					CHANNELS 3 Zrotation Yrotation Xrotation
					JOINT RightToeBaseEnd
					{
						OFFSET 0.000000 0.000000 7.370709
						CHANNELS 3 Zrotation Yrotation Xrotation
						End Site
						{
							OFFSET 0.000000 0.000000 0.000000
						}
					}
				}
				JOINT RightLegEnd
				{
					OFFSET 0.000000 0.000000 0.000000
					CHANNELS 3 Zrotation Yrotation Xrotation
					End Site
					{
						OFFSET 0.000000 0.000000 0.000000
					}
				}
			}
			JOINT RightUpLegEnd
			{
				OFFSET 0.000000 0.000000 0.000000
				CHANNELS 3 Zrotation Yrotation Xrotation
				End Site
				{
					OFFSET 0.000000 0.000000 0.000000
				}
			}
		}
	}
	JOINT LeftUpLeg
	{
		OFFSET 11.315661 0.000000 -0.000000
		CHANNELS 3 Zrotation Yrotation Xrotation
		JOINT LeftLeg
		{
			OFFSET 0.000000 -38.200325 0.000000
			CHANNELS 3 Zrotation Yrotation Xrotation
			JOINT LeftFoot
			{
				OFFSET 0.000000 -39.900856 -0.000000
				CHANNELS 3 Zrotation Yrotation Xrotation
				JOINT LeftToeBase
				{
					OFFSET 0.000000 0.000000 15.261641
					CHANNELS 3 Zrotation Yrotation Xrotation
					JOINT LeftToeBaseEnd
					{
						OFFSET -0.000000 0.000000 7.539996
						CHANNELS 3 Zrotation Yrotation Xrotation
						End Site
						{
							OFFSET 0.000000 0.000000 0.000000
						}
					}
				}
				JOINT LeftLegEnd
				{
					OFFSET 0.000000 0.000000 0.000000
					CHANNELS 3 Zrotation Yrotation Xrotation
					End Site
					{
						OFFSET 0.000000 0.000000 0.000000
					}
				}
			}
			JOINT LeftUpLegEnd
			{
				OFFSET 0.000000 0.000000 0.000000
				CHANNELS 3 Zrotation Yrotation Xrotation
				End Site
				{
					OFFSET 0.000000 0.000000 0.000000
				}
			}
		}
	}
}
MOTION
Frames: 4
Frame Time: 0.016667
-9.270551 87.177635 6.828797 -0.791220 8.125622 -11.717592 3.321062 -0.591059 6.726686 0.002206 -0.154859 3.836861 -0.988193 -2.551157 5.804750 -2.636580 -0.771645 7.058684 3.398640 -0.589187 2.950200 0.461674 0.976103 -4.040964 -0.992254 -1.280378 -18.094238 0.000000 0.000000 0.000000 86.403053 -0.043638 14.972725 46.682121 -43.685989 20.279928 -1.230138 10.707659 43.630459 3.744629 -8.168803 -5.794558 20.954845 -2.069932 35.705132 0.000004 0.000019 -50.788094 0.000006 0.000027 -35.192631 0.000004 -0.000011 -0.000036 63.957329 -0.086044 -5.460716 44.838860 0.103823 0.254347 44.801830 0.146158 0.187555 -0.000000 0.000027 -0.000029 61.972340 -0.055583 -3.523326 43.254730 0.026117 0.071377 43.462170 0.056065 0.057921 0.000005 0.000284 -0.000010 65.157074 0.006644 0.485674 45.498135 -0.010854 -0.176092 45.554871 -0.031241 -0.089349 -0.000002 0.001172 -0.000000 65.408676 0.126347 3.897892 45.341602 -0.023763 -0.484804 45.076954 -0.131700 -0.216216 0.000806 -0.000011 -0.000040 0.000000 0.000000 0.000000 0.000000 0.000000 0.000000 -84.905380 -0.757871 11.685594 -58.419453 28.860750 16.296474 0.731216 -7.342032 43.107265 10.721746 1.680026 -16.886894 -23.982038 1.727556 34.506107 -0.000001 0.000047 -59.047688 -0.000149 0.000004 -41.095631 0.000198 -0.000017 -0.001746 -79.939392 -0.028929 -10.523588 -55.235786 -0.052474 -0.408059 -55.342880 -0.013626 -0.309270 0.000030 0.001546 0.000029 -78.774216 -0.012334 -5.615205 -54.771809 -0.040814 -0.174619 -54.873325 -0.018665 -0.124897 0.002061 -0.000049 0.000114 -85.249901 0.027881 0.990309 -59.975956 0.038182 0.110954 -59.851665 -0.002516 0.104233 0.001243 0.000006 0.000002 -87.682510 0.120988 7.236228 -61.235477 -0.011085 0.287884 -61.363468 -0.053826 0.248429 -0.001680 -0.000009 -0.000043 0.000000 0.000000 0.000000 0.000000 0.000000 0.000000 0.411475 -13.166079 8.920482 -0.063063 -0.402082 13.345095 -2.356042 -13.545586 13.892413 -0.683837 1.120360 -17.333359 0.000000 0.000000 0.000000 0.000000 0.000000 0.000000 0.000000 0.000000 0.000000 9.818526 -8.983783 -0.732611 0.325879 0.660213 21.836445 -4.005128 3.774467 17.165300 0.830547 -0.511954 -21.757704 0.000000 0.000000 0.000000 0.000000 0.000000 0.000000 0.000000 0.000000 0.000000 
-9.178820 87.180809 6.771124 -0.778655 7.904271 -11.640209 3.305828 -0.573221 6.704889 0.026448 -0.153187 3.854188 -0.947522 -2.483684 5.768759 -2.658394 -0.716713 7.121219 3.448842 -0.676573 2.957761 0.463428 0.856744 -4.026696 -0.944987 -1.257622 -18.097090 0.000000 0.000000 0.000000 86.178947 0.043316 15.132864 46.613186 -43.650883 20.497913 -1.286940 10.667788 45.192581 3.160197 -8.269511 -5.176857 21.054739 -2.063672 35.670464 0.000003 0.000018 -51.017509 0.000006 0.000028 -35.367085 0.000004 -0.000011 -0.000036 64.410095 -0.088198 -5.254275 45.156933 0.127659 0.219219 45.106285 0.168381 0.156862 -0.000000 0.000026 -0.000028 62.437084 -0.055970 -3.303228 43.584820 0.035157 0.058210 43.794899 0.063293 0.046455 0.000005 0.000292 -0.000011 65.675629 0.006698 0.692237 45.860352 -0.027006 -0.158208 45.915234 -0.041688 -0.074755 -0.000001 0.001131 -0.000000 65.934143 0.120003 4.092543 45.706078 -0.068932 -0.436111 45.436134 -0.168444 -0.170710 0.000734 -0.000012 -0.000041 0.000000 0.000000 0.000000 0.000000 0.000000 0.000000 -84.746124 -0.749399 11.697109 -57.935150 28.640764 16.204243 0.737987 -7.469693 44.017624 11.014375 2.640008 -16.788551 -23.933825 1.714887 34.548759 -0.000000 0.000046 -58.957630 -0.000154 0.000003 -41.013462 0.000349 -0.000015 -0.001796 -79.935654 -0.032489 -10.532729 -55.219505 -0.040182 -0.375284 -55.332237 -0.001441 -0.275736 0.000029 0.001405 0.000030 -78.791626 -0.013539 -5.587592 -54.793865 -0.036556 -0.161013 -54.894791 -0.015222 -0.112787 0.001942 -0.000049 0.000105 -85.406563 0.027819 1.023737 -60.059982 0.029229 0.094456 -59.949730 -0.008568 0.092546 0.001347 0.000006 0.000002 -87.920700 0.114531 7.287449 -61.379852 -0.035006 0.240099 -61.513062 -0.073754 0.215250 -0.001682 -0.000008 -0.000043 0.000000 0.000000 0.000000 0.000000 0.000000 0.000000 0.349406 -12.903433 8.735281 -0.065789 -0.401558 13.401211 -2.227708 -13.384215 13.922965 -0.705848 1.125825 -17.346014 0.000000 0.000000 0.000000 0.000000 0.000000 0.000000 0.000000 0.000000 0.000000 9.733549 -8.899776 -0.752850 0.325753 0.653262 21.798870 -3.953133 3.781644 16.990047 0.809167 -0.532373 -21.703758 0.000000 0.000000 0.000000 0.000000 0.000000 0.000000 0.000000 0.000000 0.000000 
-9.081947 87.200394 6.731039 -0.745554 7.637580 -11.569792 3.274787 -0.554070 6.680274 0.060948 -0.154605 3.868287 -0.934520 -2.400775 5.702225 -2.673818 -0.664351 7.186048 3.466288 -0.707836 2.959095 0.475205 0.790025 -4.012701 -0.915422 -1.240065 -18.068369 0.000000 0.000000 0.000000 85.972946 0.121073 15.238276 46.597507 -43.432762 20.561592 -1.336547 10.681868 46.819359 2.648796 -8.235869 -4.536494 21.148064 -2.053471 35.642529 0.000003 0.000017 -51.236771 0.000005 0.000028 -35.533157 0.000004 -0.000012 -0.000036 64.877213 -0.087944 -5.056915 45.485981 0.155535 0.178858 45.424614 0.194713 0.122395 0.000000 0.000025 -0.000028 62.921333 -0.055058 -3.075165 43.930878 0.045867 0.042863 44.145973 0.071782 0.033428 0.000005 0.000296 -0.000011 66.215836 0.005599 0.927403 46.250492 -0.046013 -0.137024 46.304871 -0.054267 -0.058015 -0.000000 0.001113 -0.000001 66.456299 0.110671 4.339472 46.093971 -0.122471 -0.378524 45.821110 -0.212098 -0.119630 0.000674 -0.000012 -0.000042 0.000000 0.000000 0.000000 0.000000 0.000000 0.000000 -84.608948 -0.733970 11.683579 -57.537041 28.534151 15.803518 0.730996 -7.563603 44.989788 11.356172 3.624290 -16.690819 -23.873478 1.701829 34.598545 0.000000 0.000046 -58.826908 -0.000161 0.000002 -40.904701 0.000518 -0.000013 -0.001810 -79.857330 -0.034220 -10.510571 -55.153526 -0.025702 -0.341761 -55.271973 0.012900 -0.242026 0.000027 0.001257 0.000030 -78.742958 -0.013626 -5.550124 -54.766956 -0.031403 -0.146583 -54.866634 -0.011185 -0.100372 0.001821 -0.000048 0.000095 -85.520950 0.026633 1.060792 -60.098141 0.019017 0.076865 -60.001720 -0.015551 0.080259 0.001449 0.000006 0.000002 -88.130173 0.107161 7.353214 -61.477581 -0.062221 0.191176 -61.614902 -0.096716 0.180577 -0.001675 -0.000007 -0.000043 0.000000 0.000000 0.000000 0.000000 0.000000 0.000000 0.255040 -12.636382 8.614270 -0.069036 -0.404981 13.363862 -2.113793 -13.161768 13.982237 -0.732315 1.135312 -17.340029 0.000000 0.000000 0.000000 0.000000 0.000000 0.000000 0.000000 0.000000 0.000000 9.627608 -8.794297 -0.692391 0.324984 0.647001 21.692419 -3.914950 3.844191 16.860149 0.789431 -0.550742 -21.659809 0.000000 0.000000 0.000000 0.000000 0.000000 0.000000 0.000000 0.000000 0.000000 
-8.981630 87.232353 6.710301 -0.697470 7.338247 -11.510579 3.229289 -0.536853 6.653763 0.095416 -0.158681 3.881626 -0.942578 -2.307676 5.621981 -2.681995 -0.618452 7.245946 3.478843 -0.695509 2.955681 0.498114 0.777400 -4.005858 -0.904668 -1.226570 -18.023779 0.000000 0.000000 0.000000 85.803360 0.185536 15.284573 46.675701 -43.052467 20.496536 -1.375466 10.767704 48.507774 2.181728 -8.032330 -3.920067 21.227640 -2.040164 35.623802 0.000002 0.000017 -51.426426 0.000004 0.000028 -35.676453 0.000003 -0.000012 -0.000036 65.314369 -0.085645 -4.875828 45.794697 0.183761 0.141562 45.724983 0.221602 0.091142 0.000001 0.000024 -0.000027 63.376678 -0.053144 -2.850957 44.259605 0.056701 0.028509 44.480949 0.080347 0.021398 0.000005 0.000297 -0.000012 66.720200 0.003667 1.170974 46.628803 -0.065224 -0.117245 46.683590 -0.067144 -0.042726 -0.000000 0.001111 -0.000001 66.927666 0.100209 4.603924 46.468170 -0.176742 -0.325738 46.195843 -0.256039 -0.074540 0.000626 -0.000013 -0.000043 0.000000 0.000000 0.000000 0.000000 0.000000 0.000000 -84.511322 -0.708751 11.632856 -57.295200 28.530401 15.128173 0.704841 -7.622516 45.915394 11.775015 4.460351 -16.624922 -23.810625 1.690220 34.648869 0.000001 0.000046 -58.676815 -0.000169 0.000001 -40.786900 0.000662 -0.000011 -0.001794 -79.714020 -0.034696 -10.468095 -55.048546 -0.010773 -0.311472 -55.171707 0.027681 -0.211750 0.000025 0.001102 0.000031 -78.632545 -0.012877 -5.514214 -54.696854 -0.026080 -0.133067 -54.794498 -0.007086 -0.089049 0.001722 -0.000047 0.000084 -85.570808 0.024701 1.087385 -60.084797 0.008907 0.060769 -60.001110 -0.022509 0.069182 0.001560 0.000007 0.000003 -88.280365 0.099514 7.416133 -61.518555 -0.089242 0.148332 -61.658840 -0.119680 0.149868 -0.001657 -0.000007 -0.000044 0.000000 0.000000 0.000000 0.000000 0.000000 0.000000 0.138414 -12.381095 8.543941 -0.072592 -0.412406 13.280506 -2.019057 -12.910755 14.054432 -0.759422 1.146024 -17.324203 0.000000 0.000000 0.000000 0.000000 0.000000 0.000000 0.000000 0.000000 0.000000 9.502083 -8.663909 -0.571600 0.323613 0.641891 21.534876 -3.880118 3.948505 16.775772 0.772648 -0.565118 -21.628147 0.000000 0.000000 0.000000 0.000000 0.000000 0.000000 0.000000 0.000000 0.000000 
